<?xml version="1.0" encoding="UTF-8" standalone="no"?>
<!-- Created with Inkscape (http://www.inkscape.org/) -->

<svg
   width="2300"
   height="350"
   viewBox="0 0 608.54166 92.604164"
   version="1.1"
   id="svg1"
   xml:space="preserve"
   inkscape:version="1.4.2 (f4327f4, 2025-05-13)"
   sodipodi:docname="logo-horizontal.svg"
   xmlns:inkscape="http://www.inkscape.org/namespaces/inkscape"
   xmlns:sodipodi="http://sodipodi.sourceforge.net/DTD/sodipodi-0.dtd"
   xmlns:xlink="http://www.w3.org/1999/xlink"
   xmlns="http://www.w3.org/2000/svg"
   xmlns:svg="http://www.w3.org/2000/svg"><sodipodi:namedview
     id="namedview1"
     pagecolor="#1f0d3b"
     bordercolor="#000000"
     borderopacity="0.25"
     inkscape:showpageshadow="2"
     inkscape:pageopacity="0.0"
     inkscape:pagecheckerboard="false"
     inkscape:deskcolor="#d1d1d1"
     inkscape:document-units="mm"
     inkscape:zoom="0.68977136"
     inkscape:cx="1126.4602"
     inkscape:cy="-7.9736567"
     inkscape:window-width="2902"
     inkscape:window-height="1016"
     inkscape:window-x="946"
     inkscape:window-y="226"
     inkscape:window-maximized="0"
     inkscape:current-layer="layer1" /><defs
     id="defs1"><linearGradient
       id="linearGradient1"
       inkscape:collect="always"><stop
         style="stop-color:#8c49ea;stop-opacity:1;"
         offset="0.52394366"
         id="stop1" /><stop
         style="stop-color:#76c9ff;stop-opacity:1;"
         offset="0.61408448"
         id="stop2" /></linearGradient><linearGradient
       inkscape:collect="always"
       xlink:href="#linearGradient1"
       id="linearGradient2"
       x1="20.884932"
       y1="91.134247"
       x2="150.26302"
       y2="91.134247"
       gradientUnits="userSpaceOnUse"
       gradientTransform="translate(-21.173696,-42.600205)" /></defs><g
     inkscape:label="Layer 1"
     inkscape:groupmode="layer"
     id="layer1"><g
       id="g2"
       transform="translate(10.310569)"><path
         style="fill:url(#linearGradient2);fill-opacity:1"
         d="m 31.219614,86.398575 c -1.32839,-0.43581 -2.308,-1.08052 -3.28503,-2.16197 -1.93604,-2.14298 -1.8578,-1.48776 -2.00492,-16.78895 -0.12439,-12.935611 -0.16222,-13.802491 -0.63279,-14.496681 -0.93963,-1.3862 -0.84129,-1.37527 -12.56891,-1.39755 -10.9527398,-0.0208 -10.9527398,-0.0208 -11.84010977,-0.98909 -0.76248,-0.83202 -0.88736000018,-1.15685 -0.88736000018,-2.30823 0,-0.73696 0.17791000018,-1.68399 0.39536000018,-2.10449 0.84235997,-1.62894 0.54324,-1.59042 12.35105977,-1.59042 11.46648,0 11.71972,-0.0261 12.58372,-1.29755 0.42913,-0.63148 0.47739,-1.95533 0.59903,-16.42953 0.15031,-17.8875301 -0.004,-16.70105 2.47089,-18.9824401 2.98972,-2.75583 7.87393,-2.31695 10.4529,0.93927 1.54127,1.9460101 1.48556,1.3166701 1.62829,18.3958001 0.13229,15.83075 0.13229,15.83075 0.99636,16.6026 0.76908,0.68699 1.05546,0.77185 2.60499,0.77185 2.11539,0 3.12223,-0.58784 3.53163,-2.06192 0.15801,-0.56893 0.27411,-4.25842 0.27646,-8.786 0.005,-9.01303 0.10295,-9.46548 2.51737,-11.59073 3.64842,-3.21147 8.90369,-2.08239 11.31865,2.43179 0.55808,1.04319 0.58825,1.45955 0.71496,9.86581 0.13229,8.77666 0.13229,8.77666 0.77372,9.45886 0.56375,0.59956 0.85304,0.68219 2.38852,0.68219 2.0997,0 2.54473,-0.26551 3.97481,-2.3714 3.26545,-4.80858 6.82713,-4.8655 10.36572,-0.16564 1.97178,2.61886 3.12459,3.13998 4.49447,2.0317 0.62462,-0.50534 0.62462,-0.50534 0.75692,-9.32656 0.14847,-9.90033 0.20236,-10.19657 2.22231,-12.21652 1.59068,-1.59068 2.90365,-2.13226 5.18602,-2.13916 3.04408,-0.009 5.15836,1.3114 6.69337,4.18072 0.55831,1.04362 0.5882,1.45804 0.714956,9.9121 0.13229,8.82295 0.13229,8.82295 0.92604,9.45754 0.68637,0.54874 1.07626,0.63477 2.88207,0.63591 2.31833,0.001 2.04368,0.18791 5.73654,-3.89429 2.09019,-2.31055 4.45893,-3.02219 6.80187,-2.04349 1.26978,0.53042 2.11068,1.35111 3.53213,3.44726 1.42758,2.10517 2.18247,2.49183 4.86486,2.49183 2.01885,0 2.05314,0.0115 3.06887,1.02721 0.91233,0.91233 1.02709,1.17122 1.02622,2.3151 -0.001,1.41154 -0.66214,2.77757 -1.58251,3.27013 -0.38684,0.20703 -4.17249,0.28975 -12.57428,0.27475 -9.61974,-0.0172 -12.19408,0.051 -12.88829,0.34115 -1.66734,0.69695 -1.64854,0.60521 -1.79352,8.752611 -0.151476,8.51332 -0.257356,8.9653 -2.578776,11.0087 -3.79643,3.34175 -9.41188,1.93796 -11.6509,-2.91257 -0.34795,-0.75379 -0.4546,-2.29078 -0.57337,-8.26292 -0.14591,-7.336881 -0.14591,-7.336881 -0.86336,-8.053631 -0.71745,-0.71675 -0.71745,-0.71675 -9.65729,-0.82978 -13.0834,-0.16543 -12.24466,-0.72496 -12.24613,8.169511 -10e-4,6.80373 -0.16767,7.66077 -1.86298,9.58673 -2.90792,3.30357 -8.03278,3.21167 -11.03396,-0.19785 -1.51449,-1.72055 -1.67934,-2.61433 -1.73748,-9.41985 -0.0629,-7.362981 -0.2155,-7.734941 -3.3246,-8.103171 -1.46159,-0.1731 -3.01928,0.41362 -3.54852,1.3366 -0.23646,0.41237 -0.3566,4.272709 -0.45387,14.583741 -0.12145,12.87342 -0.17148,14.0947 -0.61028,14.89861 -0.74542,1.36564 -2.29146,2.94553 -3.47272,3.54873 -1.16781,0.59634 -4.04397,0.876 -5.17913,0.50358 z"
         id="path1" /><text
         xml:space="preserve"
         style="font-style:normal;font-variant:normal;font-weight:bold;font-stretch:normal;font-size:88.1944px;font-family:Calibri;-inkscape-font-specification:'Calibri Bold';text-align:start;writing-mode:lr-tb;direction:ltr;text-anchor:start;fill:#ffffff;stroke-width:0.264583"
         x="129.37807"
         y="74.164276"
         id="text2"><tspan
           id="tspan2"
           style="font-style:normal;font-variant:normal;font-weight:bold;font-stretch:normal;font-size:88.1944px;font-family:Calibri;-inkscape-font-specification:'Calibri Bold';fill:#ffffff;stroke-width:0.264583"
           x="129.37807"
           y="74.164276"
           sodipodi:role="line">MUX MINUS</tspan></text></g></g></svg>
