<?xml version="1.0" encoding="UTF-8" standalone="no"?>
<svg
   width="512"
   height="512"
   viewBox="0 0 512 512"
   version="1.1"
   id="svg8"
   sodipodi:docname="icon-maskable.svg"
   inkscape:version="1.4.2 (f4327f4, 2025-05-13)"
   xmlns:inkscape="http://www.inkscape.org/namespaces/inkscape"
   xmlns:sodipodi="http://sodipodi.sourceforge.net/DTD/sodipodi-0.dtd"
   xmlns:xlink="http://www.w3.org/1999/xlink"
   xmlns="http://www.w3.org/2000/svg"
   xmlns:svg="http://www.w3.org/2000/svg">
  <sodipodi:namedview
     id="namedview8"
     pagecolor="#ffffff"
     bordercolor="#000000"
     borderopacity="0.25"
     inkscape:showpageshadow="2"
     inkscape:pageopacity="0.0"
     inkscape:pagecheckerboard="0"
     inkscape:deskcolor="#d1d1d1"
     inkscape:zoom="2.1386719"
     inkscape:cx="256"
     inkscape:cy="256"
     inkscape:window-width="5120"
     inkscape:window-height="1334"
     inkscape:window-x="-11"
     inkscape:window-y="-11"
     inkscape:window-maximized="1"
     inkscape:current-layer="svg8" />
  <defs
     id="defs2">
    <linearGradient
       id="bgGradient"
       x1="0%"
       y1="0%"
       x2="100%"
       y2="100%">
      <stop
         offset="0%"
         style="stop-color:#1a1a2e"
         id="stop1" />
      <stop
         offset="100%"
         style="stop-color:#0a0a0f"
         id="stop2" />
    </linearGradient>
    <linearGradient
       inkscape:collect="always"
       xlink:href="#linearGradient1"
       id="linearGradient2"
       x1="20.884932"
       y1="91.134247"
       x2="150.26302"
       y2="91.134247"
       gradientUnits="userSpaceOnUse"
       gradientTransform="matrix(3.7795276,0,0,3.7795276,-67.526562,-80.008653)" />
    <linearGradient
       id="linearGradient1"
       inkscape:collect="always">
      <stop
         style="stop-color:#8c49ea;stop-opacity:1;"
         offset="0.52394366"
         id="stop1-7" />
      <stop
         style="stop-color:#76c9ff;stop-opacity:1;"
         offset="0.61408448"
         id="stop2-1" />
    </linearGradient>
  </defs>
  <!-- Background - full square for maskable icon safe zone -->
  <rect
     width="512"
     height="512"
     fill="url(#bgGradient)"
     id="rect2" />
  <!-- Audio waveform bars - centered in safe zone (80% of icon = 410px, centered) -->
  <path
     style="fill:url(#linearGradient2);fill-opacity:1;stroke-width:3.77953"
     d="m 130.4954,407.5458 c -5.02068,-1.64716 -8.72315,-4.08386 -12.41586,-8.17123 -7.31732,-8.09945 -7.02161,-5.62303 -7.57765,-63.4543 -0.47013,-48.8905 -0.61311,-52.16689 -2.39165,-54.7906 -3.55135,-5.23918 -3.17968,-5.19787 -47.504544,-5.28208 -41.39618,-0.0786 -41.39618,-0.0786 -44.75002,-3.73829 -2.88181,-3.14465 -3.3538,-4.37235 -3.3538,-8.72402 0,-2.78536 0.67241,-6.36469 1.49427,-7.95398 3.18372,-6.15663 2.05319,-6.01104 46.68117,-6.01104 43.337884,0 44.295014,-0.0986 47.560524,-4.90412 1.62191,-2.3867 1.80431,-7.39023 2.26405,-62.09587 0.5681,-67.60641 -0.0151,-63.12208 9.3388,-71.74465 11.29973,-10.41574 29.75973,-8.75698 39.50702,3.55 5.82527,7.35499 5.61472,4.97639 6.15417,69.52743 0.49999,59.83276 0.49999,59.83276 3.76577,62.74998 2.90676,2.5965 3.98914,2.91723 9.84563,2.91723 7.99518,0 11.80055,-2.22176 13.34789,-7.79308 0.59721,-2.15029 1.03601,-16.09482 1.04489,-33.20693 0.0189,-34.065 0.3891,-35.77504 9.51447,-43.80748 13.78931,-12.13784 33.65174,-7.87046 42.77915,9.19101 2.10928,3.94277 2.22331,5.51641 2.70221,37.2881 0.5,33.17163 0.5,33.17163 2.9243,35.75003 2.13071,2.26605 3.22409,2.57835 9.02748,2.57835 7.93587,0 9.61787,-1.0035 15.0229,-8.96277 12.34186,-18.17416 25.80333,-18.38929 39.17752,-0.62604 7.4524,9.89805 11.80948,11.86764 16.98698,7.67887 2.36077,-1.90995 2.36077,-1.90995 2.8608,-35.25 0.56114,-37.41857 0.76482,-38.53821 8.39928,-46.17267 6.01202,-6.01202 10.97443,-8.05894 19.60071,-8.08501 11.50518,-0.034 19.49616,4.95647 25.29777,15.80114 2.11015,3.94439 2.22312,5.51071 2.7022,37.46306 0.49999,33.34658 0.49999,33.34658 3.49999,35.74503 2.59416,2.07398 4.06776,2.39913 10.89287,2.40344 8.76219,0.004 7.72414,0.71021 21.68141,-14.71858 7.89993,-8.73278 16.85265,-11.42245 25.70785,-7.72342 4.79917,2.00473 7.97738,5.10656 13.34978,13.02901 5.39558,7.95655 8.24871,9.41794 18.38688,9.41794 7.6303,0 7.7599,0.0435 11.59888,3.88237 3.44817,3.44818 3.88191,4.42666 3.87862,8.74999 -0.004,5.33495 -2.50257,10.4979 -5.98114,12.35954 -1.46207,0.78248 -15.77004,1.09512 -47.52484,1.03843 -36.35807,-0.065 -46.08786,0.19275 -48.71164,1.28938 -6.30176,2.63414 -6.23071,2.28741 -6.77866,33.08074 -0.57251,32.17633 -0.97269,33.8846 -9.74656,41.60768 -14.34871,12.63024 -35.57246,7.32458 -44.03489,-11.00814 -1.31509,-2.84897 -1.71818,-8.65806 -2.16707,-31.22993 -0.55147,-27.72994 -0.55147,-27.72994 -3.2631,-30.43892 -2.71162,-2.70898 -2.71162,-2.70898 -36.49999,-3.13618 -49.44907,-0.62524 -46.27903,-2.74 -46.28459,30.8769 -0.004,25.71488 -0.63371,28.95409 -7.04118,36.23331 -10.99056,12.48593 -30.36011,12.13859 -41.70316,-0.74778 -5.72405,-6.50287 -6.34711,-9.88094 -6.56685,-35.60259 -0.23773,-27.82859 -0.81449,-29.23442 -12.56542,-30.62615 -5.52412,-0.65424 -11.41145,1.56328 -13.41173,5.05171 -0.8937,1.55857 -1.34778,16.14882 -1.71541,55.11965 -0.45902,48.65545 -0.64811,53.27131 -2.30657,56.30971 -2.81734,5.16148 -8.66064,11.13271 -13.12524,13.41252 -4.41377,2.25389 -15.2843,3.31087 -19.57467,1.9033 z"
     id="path1" />
</svg>
