<?xml version="1.0" encoding="UTF-8" standalone="no"?>
<svg
   width="512"
   height="512"
   viewBox="0 0 512 512"
   version="1.1"
   id="svg11"
   sodipodi:docname="icon.svg"
   inkscape:version="1.4.2 (f4327f4, 2025-05-13)"
   xmlns:inkscape="http://www.inkscape.org/namespaces/inkscape"
   xmlns:sodipodi="http://sodipodi.sourceforge.net/DTD/sodipodi-0.dtd"
   xmlns:xlink="http://www.w3.org/1999/xlink"
   xmlns="http://www.w3.org/2000/svg"
   xmlns:svg="http://www.w3.org/2000/svg">
  <sodipodi:namedview
     id="namedview11"
     pagecolor="#ffffff"
     bordercolor="#000000"
     borderopacity="0.25"
     inkscape:showpageshadow="2"
     inkscape:pageopacity="0.0"
     inkscape:pagecheckerboard="0"
     inkscape:deskcolor="#d1d1d1"
     inkscape:zoom="2.1386719"
     inkscape:cx="256"
     inkscape:cy="330.579"
     inkscape:window-width="2556"
     inkscape:window-height="1321"
     inkscape:window-x="2551"
     inkscape:window-y="0"
     inkscape:window-maximized="0"
     inkscape:current-layer="svg11" />
  <defs
     id="defs5">
    <linearGradient
       id="bgGradient"
       x1="0%"
       y1="0%"
       x2="100%"
       y2="100%">
      <stop
         offset="0%"
         style="stop-color:#1a1a2e"
         id="stop1" />
      <stop
         offset="100%"
         style="stop-color:#0a0a0f"
         id="stop2" />
    </linearGradient>
    <linearGradient
       id="accentGradient"
       x1="0%"
       y1="0%"
       x2="100%"
       y2="100%">
      <stop
         offset="0%"
         style="stop-color:#6366f1"
         id="stop3" />
      <stop
         offset="50%"
         style="stop-color:#8b5cf6"
         id="stop4" />
      <stop
         offset="100%"
         style="stop-color:#a855f7"
         id="stop5" />
    </linearGradient>
    <linearGradient
       inkscape:collect="always"
       xlink:href="#linearGradient1"
       id="linearGradient2"
       x1="20.884932"
       y1="91.134247"
       x2="150.26302"
       y2="91.134247"
       gradientUnits="userSpaceOnUse"
       gradientTransform="matrix(3.7795276,0,0,3.7795276,-67.526559,-80.008651)" />
    <linearGradient
       id="linearGradient1"
       inkscape:collect="always">
      <stop
         style="stop-color:#8c49ea;stop-opacity:1;"
         offset="0.52394366"
         id="stop1-5" />
      <stop
         style="stop-color:#76c9ff;stop-opacity:1;"
         offset="0.61408448"
         id="stop2-1" />
    </linearGradient>
  </defs>
  <!-- Background -->
  <rect
     width="512"
     height="512"
     rx="96"
     fill="url(#bgGradient)"
     id="rect5" />
  <!-- Audio waveform bars representing stems -->
  <path
     style="fill:url(#linearGradient2);fill-opacity:1;stroke-width:3.77953"
     d="m 130.49539,407.5458 c -5.02068,-1.64716 -8.72314,-4.08386 -12.41586,-8.17123 -7.31731,-8.09945 -7.0216,-5.62303 -7.57765,-63.4543 -0.47013,-48.89049 -0.61311,-52.16689 -2.39164,-54.7906 -3.55136,-5.23918 -3.17968,-5.19787 -47.504542,-5.28208 -41.396179,-0.0786 -41.396179,-0.0786 -44.750018,-3.73829 -2.881815,-3.14464 -3.353802,-4.37235 -3.353802,-8.72402 0,-2.78536 0.672416,-6.36468 1.494274,-7.95398 3.183723,-6.15662 2.053191,-6.01103 46.681176,-6.01103 43.337862,0 44.294992,-0.0987 47.560502,-4.90413 1.62191,-2.38669 1.80431,-7.39022 2.26405,-62.09586 0.5681,-67.60641 -0.0151,-63.12208 9.3388,-71.74466 11.29973,-10.41574 29.75974,-8.75698 39.50702,3.55 5.82528,7.355 5.61472,4.97639 6.15417,69.52743 0.49999,59.83276 0.49999,59.83276 3.76577,62.74999 2.90676,2.5965 3.98914,2.91723 9.84563,2.91723 7.99518,0 11.80056,-2.22176 13.3479,-7.79309 0.5972,-2.15028 1.036,-16.09481 1.04488,-33.20693 0.0189,-34.06499 0.38911,-35.77504 9.51447,-43.80748 13.78931,-12.13784 33.65175,-7.87045 42.77915,9.19102 2.10928,3.94276 2.22331,5.51641 2.70221,37.2881 0.5,33.17163 0.5,33.17163 2.9243,35.75002 2.13071,2.26606 3.22409,2.57836 9.02748,2.57836 7.93587,0 9.61787,-1.0035 15.0229,-8.96277 12.34186,-18.17416 25.80333,-18.3893 39.17753,-0.62604 7.45239,9.89805 11.80947,11.86764 16.98697,7.67886 2.36077,-1.90995 2.36077,-1.90995 2.8608,-35.24999 0.56115,-37.41857 0.76483,-38.53822 8.39928,-46.17267 6.01202,-6.01202 10.97443,-8.05894 19.60071,-8.08502 11.50518,-0.034 19.49616,4.95647 25.29777,15.80115 2.11015,3.94439 2.22312,5.5107 2.7022,37.46305 0.49999,33.34659 0.49999,33.34659 3.49999,35.74504 2.59416,2.07398 4.06776,2.39913 10.89287,2.40344 8.76219,0.004 7.72414,0.71021 21.68141,-14.71858 7.89993,-8.73279 16.85265,-11.42245 25.70785,-7.72343 4.79917,2.00474 7.97738,5.10656 13.34979,13.02902 5.39557,7.95655 8.2487,9.41794 18.38687,9.41794 7.6303,0 7.7599,0.0435 11.59888,3.88237 3.44817,3.44817 3.88191,4.42665 3.87862,8.74998 -0.004,5.33496 -2.50257,10.4979 -5.98114,12.35955 -1.46207,0.78247 -15.77004,1.09512 -47.52483,1.03842 -36.35808,-0.065 -46.08787,0.19276 -48.71165,1.28939 -6.30176,2.63414 -6.2307,2.28741 -6.77866,33.08073 -0.57251,32.17633 -0.97268,33.8846 -9.74655,41.60768 -14.34872,12.63024 -35.57247,7.32458 -44.0349,-11.00813 -1.31509,-2.84897 -1.71818,-8.65807 -2.16707,-31.22994 -0.55147,-27.72994 -0.55147,-27.72994 -3.26309,-30.43891 -2.71163,-2.70898 -2.71163,-2.70898 -36.5,-3.13618 -49.44907,-0.62525 -46.27903,-2.74001 -46.28458,30.87689 -0.004,25.71488 -0.63372,28.95409 -7.04119,36.23331 -10.99056,12.48593 -30.36011,12.13859 -41.70315,-0.74778 -5.72406,-6.50287 -6.34712,-9.88093 -6.56686,-35.60259 -0.23773,-27.82858 -0.81449,-29.23441 -12.56542,-30.62615 -5.52412,-0.65424 -11.41145,1.56329 -13.41173,5.05172 -0.8937,1.55856 -1.34777,16.14881 -1.71541,55.11964 -0.45902,48.65545 -0.64811,53.27131 -2.30657,56.30971 -2.81733,5.16148 -8.66064,11.13271 -13.12524,13.41253 -4.41377,2.25388 -15.2843,3.31086 -19.57467,1.90329 z"
     id="path1" />
</svg>
